<svg width="340" height="155" viewBox="0 0 340 155" fill="none" xmlns="http://www.w3.org/2000/svg">
<path fill-rule="evenodd" clip-rule="evenodd" d="M328.003 90C321.385 90 316 95.3832 316 102.001C316 108.619 321.385 114 328.003 114C334.615 114 340 108.619 340 102.001C340 95.3832 334.615 90 328.003 90Z" fill="#000206"/>
<path fill-rule="evenodd" clip-rule="evenodd" d="M249 113H268V0H249V113Z" fill="#000206"/>
<path fill-rule="evenodd" clip-rule="evenodd" d="M285 113H304V0H285V113Z" fill="#000206"/>
<path fill-rule="evenodd" clip-rule="evenodd" d="M234 81.1562V43H215.3V83.7556C215.3 92.1502 208.435 98.9834 200 98.9834C191.562 98.9834 184.7 92.1502 184.7 83.7556V43H166V81.1562C166 99.8156 181.253 115 200 115C218.749 115 234 99.8156 234 81.1562Z" fill="#000206"/>
<path fill-rule="evenodd" clip-rule="evenodd" d="M136.065 79C136.065 89.6771 127.516 98.3595 117.003 98.3595C106.337 98.3595 97.9788 89.8572 97.9788 79C97.9788 68.1428 106.337 59.6378 117.003 59.6378C127.516 59.6378 136.065 68.3229 136.065 79ZM117.003 42C96.6009 42 80 58.5982 80 79C80 99.4018 96.6009 116 117.003 116C137.405 116 154 99.4018 154 79C154 58.5982 137.405 42 117.003 42Z" fill="#131614"/>
<path fill-rule="evenodd" clip-rule="evenodd" d="M68 42H49.2996V83.0462C49.2996 91.5034 42.4353 98.3826 34 98.3826C25.5647 98.3826 18.7004 91.5034 18.7004 83.0462V42H0V80.4283C0 99.2234 15.2533 114.513 34 114.513C38.5934 114.513 43.0425 113.607 47.2357 111.824L49.2996 110.948V123.53C49.2996 131.99 42.4353 138.867 34 138.867C25.5647 138.867 18.7004 131.99 18.7004 123.53V121.169H0C0.138864 139.849 15.3377 155 34 155C52.7467 155 68 139.707 68 120.912V42Z" fill="#000206"/>
</svg>
